<svg xmlns="http://www.w3.org/2000/svg" xmlns:xlink="http://www.w3.org/1999/xlink" viewBox="0 0 812 394"><defs><style>.cls-1{fill:none;}.cls-2,.cls-6{fill:#009367;}.cls-3{clip-path:url(#clip-path);}.cls-4{fill:url(#linear-gradient);}.cls-5{fill:#fff;}.cls-6{font-size:81.36px;font-family:Arial-Black, Arial;font-weight:800;}.cls-7{fill:#231f20;font-size:75.1px;font-family:CenturyGothic, Century Gothic;font-weight:400;}.cls-8{font-size:24.22px;fill:#666766;font-family:Myriad-Roman, Myriad Roman;letter-spacing:0.2em;}.cls-9{letter-spacing:0.24em;}.cls-10{letter-spacing:0.2em;}.cls-11{letter-spacing:0.16em;}.cls-12{letter-spacing:0.17em;}</style><clipPath id="clip-path"><polygon class="cls-1" points="176.36 176.99 72.03 174.62 156.84 226.07 43.97 213.41 165.36 286.8 211.07 286.8 243.98 253.89 243.98 150.04 109.76 136.34 176.36 176.99"/></clipPath><linearGradient id="linear-gradient" x1="602.69" y1="508.59" x2="608.7" y2="508.59" gradientTransform="matrix(25.02, 14.54, 14.54, -25.02, -22382, 4141.68)" gradientUnits="userSpaceOnUse"><stop offset="0" stop-color="#00734f"/><stop offset="0.25" stop-color="#00734f"/><stop offset="1" stop-color="#009367"/></linearGradient></defs><title>it-conquest-logo-vertical</title><g id="Logo"><polygon class="cls-2" points="243.98 86.8 43.97 86.8 43.97 286.8 211.07 286.8 243.98 253.89 243.98 86.8"/><g class="cls-3"><polygon class="cls-4" points="94.45 49.47 309.32 174.32 193.49 373.67 -21.39 248.81 94.45 49.47"/></g><polygon class="cls-5" points="148.02 121.52 109.76 136.35 244.27 150.06 244.27 126.45 148.02 121.52"/><polygon class="cls-5" points="72.03 174.62 201.32 200.92 239.12 178.68 105.51 161.79 72.03 174.62"/><polygon class="cls-5" points="188.42 229.62 71.18 197.22 43.97 205.81 43.97 213.41 138.19 251.15 188.42 229.62"/></g><g id="Name"><text class="cls-6" transform="translate(282.52 196.6)">IT<tspan class="cls-7" x="90.42" y="0">CONQUEST</tspan></text><text class="cls-8" transform="translate(339.38 240.74) scale(0.97 1)">LE<tspan class="cls-9" x="33.05" y="0">T</tspan><tspan class="cls-10" x="50.78" y="0">’S GET</tspan><tspan class="cls-11" x="141.55" y="0"> </tspan><tspan x="150.54" y="0">THERE</tspan><tspan class="cls-11" x="239.47" y="0"> </tspan><tspan class="cls-12" x="248.45" y="0">T</tspan><tspan x="264.68" y="0">OGETHER</tspan></text></g></svg>
